<?xml version="1.0" standalone="no"?>
<!DOCTYPE svg PUBLIC "-//W3C//DTD SVG 20010904//EN"
 "http://www.w3.org/TR/2001/REC-SVG-20010904/DTD/svg10.dtd">
<svg version="1.0" xmlns="http://www.w3.org/2000/svg"
 width="512.000000pt" height="512.000000pt" viewBox="0 0 512.000000 512.000000"
 preserveAspectRatio="xMidYMid meet">
<metadata>
Created by potrace 1.14, written by Peter Selinger 2001-2017
</metadata>
<g transform="translate(0.000000,512.000000) scale(0.100000,-0.100000)"
fill="#000000" stroke="none">
<path d="M1061 4241 c-13 -3 -38 -23 -54 -43 l-30 -37 0 -143 c1 -137 2 -143
24 -161 20 -16 24 -29 25 -76 1 -48 -2 -59 -24 -77 l-25 -20 0 -197 c1 -185 2
-198 23 -232 25 -40 69 -62 126 -63 21 0 44 -1 50 -1 6 -1 10 -23 9 -53 l-1
-53 -59 -3 c-70 -3 -117 -29 -135 -72 -9 -22 -12 -141 -13 -459 0 -392 2 -431
18 -458 26 -44 64 -63 129 -63 31 0 56 -3 57 -7 5 -37 4 -85 -3 -89 -4 -3 -29
-6 -55 -8 -63 -3 -103 -23 -126 -64 -19 -32 -20 -56 -19 -468 0 -480 -2 -463
65 -505 31 -19 59 -19 1530 -17 l1499 3 34 37 c37 41 36 30 36 234 1 148 -4
180 -30 186 -15 4 -18 15 -17 66 0 51 4 63 24 79 22 18 23 24 23 153 -1 225 1
214 -29 247 -33 35 -79 53 -138 53 l-42 0 2 48 2 47 64 5 c72 6 111 28 130 74
9 21 12 141 12 456 0 394 -2 430 -18 458 -24 41 -68 61 -135 65 l-54 2 -2 53
-1 52 48 0 c50 0 93 14 120 40 41 38 42 49 42 492 0 396 -1 431 -18 462 -38
71 78 66 -1563 65 -812 -1 -1488 -4 -1501 -8z"/>
</g>
</svg>
